#!OML:ASF H:\Terrain\Patient Classification 1\Animal2\Wednesday\Animal2.ASF
:FULLY-SPECIFIED
:DEGREES
34
root 9.81808 17.5849 -33.1537 2.04475 0.0784306 -0.136373
lowerback 0.77814 -2.11892 -0.754116
upperback -1.06797 -2.82876 0.673022
thorax -1.45899 -1.40153 1.16704
lowerneck -1.14627 4.9749 15.3986
upperneck 6.15093 7.5392 -19.9476
head 3.34374 3.58816 -8.53571
rclavicle 1.90096e-014 1.98785e-016
rhumerus -33.3582 6.17949 -91.298
rradius 22.0298
rwrist 15.2788
rhand -16.3173 20.4743
rfingers 7.12502
rthumb 9.89404 -9.27321
lclavicle 1.90096e-014 1.98785e-016
lhumerus -39.8447 -7.86725 92.9097
lradius 27.7434
lwrist 7.40429
lhand -16.7781 27.4815
lfingers 7.12502
lthumb 9.44941 57.2496
rfemur -9.22799 -6.95392 21.1483
rtibia 27.6642
rfoot -23.9814 -2.94473
rtoes -1.38425
lfemur -12.0456 2.77417 -21.9605
ltibia 28.5134
lfoot -19.9826 -0.514514
ltoes -24.5086
35
root 9.82553 17.5884 -33.1496 2.09271 -0.049789 -0.0401248
lowerback 0.661713 -2.10029 -0.830429
upperback -1.01625 -2.80469 0.643773
thorax -1.33912 -1.38987 1.17306
lowerneck -0.882879 5.07778 15.495
upperneck 5.75103 7.6699 -20.103
head 3.21779 3.67204 -8.60102
rclavicle 4.3655e-015 -1.35174e-014
rhumerus -32.8487 5.95855 -91.2316
rradius 21.3885
rwrist 15.5459
rhand -16.4092 20.3638
rfingers 7.12502
rthumb 9.80537 -9.38788
lclavicle 4.3655e-015 -1.35174e-014
lhumerus -39.8154 -7.82388 92.8825
lradius 27.7762
lwrist 7.46013
lhand -17.1089 27.5126
lfingers 7.12502
lthumb 9.13022 57.295
rfemur -9.297 -6.82049 21.01
rtibia 27.71
rfoot -23.9724 -2.88577
rtoes -0.665458
lfemur -12.0423 2.67861 -22.1095
ltibia 28.4693
lfoot -19.9662 -0.418141
ltoes -24.0668
36
root 9.83567 17.59 -33.1433 2.20408 -0.198888 -0.0843211
lowerback 0.43585 -2.04249 -0.699709
upperback -0.940286 -2.72502 0.619088
thorax -1.14394 -1.35298 1.06263
lowerneck -0.771516 5.21438 15.5418
upperneck 5.39632 7.82698 -20.1371
head 3.13011 3.76217 -8.61083
rclavicle -1.29365e-014 7.85199e-015
rhumerus -32.4217 5.67603 -91.1417
rradius 20.9938
rwrist 15.8419
rhand -16.444 20.3585
rfingers 7.12502
rthumb 9.77177 -9.39478
lclavicle -1.29365e-014 7.85199e-015
lhumerus -39.8243 -8.15621 93.0488
lradius 28.0788
lwrist 8.25326
lhand -17.5973 27.7067
lfingers 7.12502
lthumb 8.65899 57.5092
rfemur -9.39815 -6.73795 21.0212
rtibia 27.6764
rfoot -23.9332 -2.85137
rtoes -0.331779
lfemur -12.1447 2.59984 -22.128
ltibia 28.506
lfoot -19.9917 -0.111039
ltoes -24.4666
37
root 9.84578 17.589 -33.1372 2.34841 -0.320572 -0.299037
lowerback 0.255036 -1.95931 -0.39076
upperback -0.924594 -2.61039 0.64423
thorax -1.0417 -1.29884 0.907189
lowerneck -0.675372 5.36979 15.5522
upperneck 5.20911 8.03052 -20.1482
head 3.09943 3.87127 -8.60405
rclavicle 8.11756e-015 5.76476e-015
rhumerus -32.4248 5.65995 -91.1588
rradius 21.2191
rwrist 15.8061
rhand -16.4577 20.6447
rfingers 7.12502
rthumb 9.75857 -9.10924
lclavicle 8.11756e-015 5.76476e-015
lhumerus -39.822 -8.40276 93.1508
lradius 28.2647
lwrist 8.72546
lhand -17.857 27.6336
lfingers 7.12502
lthumb 8.40838 57.4462
rfemur -9.50175 -6.70938 21.227
rtibia 27.5708
rfoot -23.9133 -2.8576
rtoes -0.944204
lfemur -12.3435 2.66737 -21.9418
ltibia 28.6234
lfoot -19.9895 -0.0620952
ltoes -24.0609
38
root 9.85663 17.5906 -33.1304 2.43732 -0.288249 -0.498389
lowerback 0.180559 -1.92115 -0.113474
upperback -0.923597 -2.55709 0.673455
thorax -1.01066 -1.2745 0.778967
lowerneck -0.643853 5.53542 15.6529
upperneck 5.17692 8.2634 -20.213
head 3.1362 3.98953 -8.62866
rclavicle -1.6965e-014 1.51076e-014
rhumerus -32.5307 5.82514 -91.2598
rradius 21.5288
rwrist 15.3692
rhand -16.31 20.2019
rfingers 7.12502
rthumb 9.9011 -9.54531
lclavicle -1.6965e-014 1.51076e-014
lhumerus -39.7988 -8.57601 93.2029
lradius 28.2717
lwrist 8.97024
lhand -18.5331 27.3258
lfingers 7.12502
lthumb 7.75577 57.1635
rfemur -9.51109 -6.79222 21.4159
rtibia 27.4548
rfoot -23.8979 -2.77986
rtoes -1.03051
lfemur -12.5031 2.86912 -21.7514
ltibia 28.7636
lfoot -20.1258 -0.350178
ltoes -24.0696
